<?xml version="1.0" standalone="no"?>
<!DOCTYPE svg PUBLIC "-//W3C//DTD SVG 20010904//EN"
 "http://www.w3.org/TR/2001/REC-SVG-20010904/DTD/svg10.dtd">
<svg version="1.0" xmlns="http://www.w3.org/2000/svg"
 width="491.000000pt" height="185.000000pt" viewBox="0 0 491.000000 185.000000"
 preserveAspectRatio="xMidYMid meet">
<metadata>
Created by potrace 1.13, written by Peter Selinger 2001-2015
</metadata>
<g transform="translate(0.000000,185.000000) scale(0.100000,-0.100000)"
fill="#000000" stroke="none">
<path d="M2630 1609 c-74 -4 -164 -15 -200 -23 -36 -9 -78 -18 -95 -21 -118
-17 -122 -17 -170 8 -26 14 -54 23 -64 19 -22 -8 -50 -43 -51 -63 0 -20 -20
-29 -65 -29 -27 0 -35 -5 -45 -30 -11 -26 -9 -36 20 -96 43 -87 44 -155 8
-325 -31 -144 -58 -320 -58 -388 -1 -25 -7 -71 -14 -101 -12 -51 -15 -55 -44
-58 -20 -2 -32 -9 -32 -18 0 -8 -6 -14 -14 -14 -29 0 -28 -23 4 -120 24 -70
37 -97 47 -93 7 3 13 -1 13 -10 0 -8 20 -37 45 -64 42 -46 46 -48 90 -45 33 3
48 9 53 22 7 19 119 102 160 120 12 5 22 14 22 20 0 12 32 50 43 50 4 0 24 7
45 17 20 9 41 15 46 14 4 -1 14 4 22 10 8 7 17 9 20 6 3 -3 27 4 52 15 26 11
59 22 75 24 44 6 87 32 87 54 0 11 5 20 11 20 6 0 8 -8 4 -19 -5 -16 -2 -18
15 -14 15 4 19 11 15 27 -2 11 -2 15 1 8 4 -8 10 -9 17 -4 19 14 47 22 47 13
0 -5 -11 -12 -25 -15 -14 -4 -25 -13 -25 -21 0 -8 -12 -21 -27 -29 l-28 -15
42 4 c23 2 50 8 61 14 23 12 32 6 32 -24 0 -20 4 -21 100 -21 55 1 100 -1 100
-4 0 -8 68 -5 77 3 4 5 -1 15 -11 23 -11 7 -17 17 -13 20 4 4 13 1 22 -6 12
-10 15 -10 15 2 0 8 -20 22 -45 32 -47 20 -59 36 -25 36 11 0 20 -4 20 -10 0
-5 13 -10 29 -10 25 0 28 3 23 25 -2 14 -8 23 -12 20 -5 -3 -13 10 -20 29 -8
26 -18 36 -40 41 -18 4 -35 17 -42 33 -14 28 -77 68 -87 55 -3 -4 -22 -9 -41
-10 -108 -4 -189 -11 -197 -16 -6 -4 -66 -18 -134 -31 -68 -14 -160 -34 -203
-46 -44 -11 -99 -20 -123 -20 l-44 0 7 63 c4 34 10 64 14 67 4 3 13 18 21 35
10 21 28 34 64 48 28 10 68 26 90 36 59 27 187 65 209 62 10 -2 23 3 27 11 7
11 11 11 17 0 7 -10 11 -10 21 2 7 9 23 15 35 15 73 0 159 18 216 46 14 7 30
11 36 8 13 -5 50 35 40 44 -4 4 -11 1 -16 -7 -8 -12 -10 -11 -10 5 -1 27 -55
85 -79 85 -11 0 -23 5 -27 11 -3 6 -17 8 -33 4 -14 -4 -33 -8 -41 -8 -28 0
-214 -48 -342 -88 -159 -49 -161 -48 -139 60 13 67 20 81 58 118 24 23 43 48
44 55 0 7 4 4 9 -7 6 -14 9 -16 9 -4 1 18 53 59 76 59 9 0 26 5 38 12 33 17
67 18 69 2 0 -8 1 -20 2 -26 1 -7 6 -16 11 -20 6 -5 5 -8 -2 -8 -7 0 -13 -4
-13 -10 0 -5 15 -10 33 -10 22 0 42 10 66 31 23 23 35 28 41 20 5 -10 10 -10
21 1 25 23 80 50 87 43 4 -4 1 -10 -5 -12 -14 -5 -18 -33 -5 -33 4 0 16 6 27
13 26 18 65 28 65 16 0 -5 5 -9 10 -9 6 0 10 6 10 13 0 15 -58 39 -74 30 -6
-3 -6 0 1 7 7 7 33 14 58 14 33 1 49 6 56 18 8 14 7 16 -6 12 -18 -7 -19 0 -5
26 7 13 7 21 -1 25 -6 4 -13 -2 -16 -14 -3 -12 -9 -21 -14 -21 -12 0 -11 47 1
55 16 10 11 34 -12 57 -13 13 -22 29 -20 35 2 7 -6 13 -16 13 -10 0 -27 9 -37
20 -10 11 -21 19 -24 18 -3 -1 -67 -5 -141 -9z"/>
<path d="M863 1603 c-13 -2 -23 -9 -23 -15 0 -6 -20 -8 -50 -5 -29 3 -48 1
-45 -4 4 -5 0 -7 -7 -4 -24 9 -244 -167 -233 -186 3 -4 -16 -31 -41 -61 -26
-29 -54 -69 -63 -88 -24 -51 -44 -80 -56 -80 -22 0 -64 -48 -92 -105 -32 -64
-58 -156 -50 -177 3 -7 6 -4 6 7 2 44 17 41 16 -3 -3 -112 -6 -138 -14 -117
-5 11 -7 23 -4 28 2 4 0 7 -6 7 -13 0 -6 -41 20 -134 24 -83 33 -84 13 -1 -17
74 -17 89 2 50 l14 -30 -5 45 c-3 25 -2 38 1 30 44 -101 107 -222 129 -249 16
-18 29 -43 30 -55 2 -11 8 -20 14 -18 7 1 9 -2 6 -8 -7 -11 50 -70 130 -137
53 -44 154 -96 250 -128 69 -23 96 -26 194 -26 62 1 125 4 140 7 63 13 160 67
230 128 36 32 191 213 191 224 0 6 -9 8 -20 5 -15 -4 -19 -2 -14 10 3 9 -1 26
-10 39 -9 12 -16 17 -16 11 0 -7 -7 -10 -15 -6 -14 5 -14 7 0 23 20 22 6 34
-17 13 -16 -14 -18 -14 -18 0 0 9 -7 14 -17 13 -21 -3 -47 20 -38 34 3 5 -6
15 -22 21 -22 8 -35 7 -61 -7 -17 -9 -35 -14 -39 -11 -3 4 -1 7 5 7 7 0 11 6
9 13 -5 27 -34 21 -95 -20 -36 -24 -69 -43 -74 -43 -5 0 -6 -4 -3 -10 3 -5 0
-11 -7 -12 -7 0 -18 -2 -24 -2 -6 -1 -18 -7 -27 -14 -15 -13 -78 -31 -171 -52
-30 -6 -46 -4 -65 8 -42 26 -78 71 -106 131 -14 31 -30 63 -34 71 -20 41 19
276 49 295 4 2 17 31 30 64 20 55 70 120 70 92 0 -9 5 -9 20 -1 11 6 20 16 20
23 0 29 81 87 120 87 11 0 32 7 45 16 19 12 37 15 69 10 52 -8 85 -32 125 -90
19 -27 45 -49 73 -61 24 -10 55 -27 70 -37 14 -10 32 -18 39 -18 7 0 26 -12
42 -27 l29 -28 -7 33 c-7 32 -6 33 13 23 15 -8 21 -8 25 2 3 8 19 2 51 -20 33
-23 46 -28 46 -18 0 8 6 14 12 12 20 -3 10 53 -16 93 -13 20 -58 73 -102 119
-71 76 -88 88 -199 142 -67 32 -135 70 -151 84 -16 14 -38 25 -49 25 -11 0
-31 7 -44 16 -25 18 -138 55 -161 53 -8 -1 -25 -4 -37 -6z"/>
<path d="M3857 1596 c-2 -5 -35 -9 -74 -10 -39 0 -69 -5 -66 -10 3 -5 0 -6 -8
-4 -23 9 -72 -22 -118 -74 -29 -32 -49 -47 -59 -43 -19 7 -105 -83 -98 -102 3
-8 -1 -16 -9 -19 -8 -4 -15 -15 -15 -25 0 -11 -19 -39 -43 -62 -50 -50 -84
-105 -103 -167 -16 -56 -33 -185 -33 -264 -1 -74 41 -217 75 -254 23 -24 24
-25 14 -4 -17 35 -5 38 16 5 55 -88 121 -164 167 -195 119 -81 258 -138 397
-162 65 -11 281 -9 292 2 8 8 14 7 23 -5 10 -13 15 -14 35 -2 13 8 32 23 41
34 14 17 19 17 33 6 14 -12 16 -12 10 4 -5 13 -4 16 4 11 7 -4 12 -2 12 4 0 6
4 9 9 6 4 -3 18 6 31 19 13 13 26 23 30 20 3 -2 25 16 49 41 25 27 47 42 54
38 7 -4 9 -4 5 1 -4 4 8 23 27 42 19 19 35 36 35 38 0 1 16 31 35 65 21 37 37
81 40 107 5 56 14 83 27 83 6 0 6 6 -2 15 -7 8 -13 36 -14 62 -1 27 -10 89
-20 138 -9 50 -21 114 -26 143 -13 70 -31 107 -86 170 -43 49 -100 90 -110 79
-3 -2 11 -24 31 -48 52 -65 118 -214 85 -194 -5 3 -10 13 -10 21 0 24 -50 115
-60 109 -4 -3 -18 7 -30 22 -12 16 -36 44 -53 63 -39 44 -42 57 -17 65 12 4
20 15 20 28 0 27 -35 87 -51 87 -7 0 -17 6 -23 14 -10 13 -143 69 -231 97 -45
15 -233 19 -238 5z m217 -211 c43 -9 87 -20 98 -26 10 -5 22 -7 27 -4 5 2 28
-4 51 -14 45 -20 60 -42 160 -249 68 -139 77 -265 25 -344 -14 -21 -25 -40
-25 -43 0 -18 -113 -155 -172 -209 -59 -54 -80 -67 -124 -76 -48 -10 -176 -6
-197 7 -4 2 -19 7 -34 9 -15 3 -32 9 -38 13 -5 4 -26 14 -45 21 -19 8 -53 25
-74 38 -35 22 -53 29 -79 31 -5 1 -5 6 -1 13 5 7 2 9 -9 5 -11 -4 -14 -2 -10
9 3 8 -1 14 -10 14 -9 0 -19 9 -22 20 -3 11 -10 20 -14 20 -15 0 -68 141 -62
165 2 6 5 44 8 85 3 41 11 97 19 125 10 40 10 47 0 32 -7 -9 -19 -17 -27 -16
-10 0 -11 2 -1 6 6 2 12 12 12 20 0 9 12 31 26 50 14 19 24 36 21 39 -2 3 9
19 25 36 16 17 34 40 40 51 8 17 8 19 -5 14 -11 -4 -14 -2 -10 9 3 8 13 13 22
12 10 -2 15 3 15 15 -1 10 5 17 16 17 10 0 25 11 34 25 9 14 23 25 32 25 8 0
17 7 20 14 6 15 106 52 159 59 34 4 41 3 149 -18z"/>
</g>
</svg>
